<?xml version="1.0" encoding="UTF-8"?>
<svg xmlns="http://www.w3.org/2000/svg" version="1.1" viewBox="0 0 1500 795.5">
  <!-- Generator: Adobe Illustrator 30.1.0, SVG Export Plug-In . SVG Version: 2.1.1 Build 136)  -->
  <defs>
    <style>
      .st0 {
        fill: #ec6624;
      }

      .st1 {
        fill: #9f3b23;
      }

      .st1, .st2 {
        mix-blend-mode: multiply;
      }

      .st3 {
        fill: #9d3722;
      }

      .st4 {
        fill: #606262;
      }

      .st5 {
        isolation: isolate;
      }

      .st2 {
        fill: #58180c;
      }
    </style>
  </defs>
  <g class="st5">
    <g id="Layer_1">
      <g>
        <path class="st1" d="M35.1,661.4s25.4-148,19.7-254.4c0,0,41.5-69.6,57.2-104.5,15.8-34.9,26-63,27.1-71.3,0,0,39.1-31,172.5-43,0,0-59.4-5.3-179.7,6.4,0,0-16.4,3.4-21.6,25.3-5.1,21.9-40.4,90.1-86,175.1l10.8,266.4Z"/>
        <path class="st1" d="M447,441c42.8-81.7,124.7-265.4,372.8-340.8,253.5-77,446.8-54.8,446.8-54.8,0,0-207.6-36.3-398.8,1.4-159.9,31.5-307.7,126.8-381.8,274.6-16.7,33.3-33.1,55.9-34.9,93.1l-4.1,26.6Z"/>
        <path class="st1" d="M936.9,147.1c71.4,105.3,76.1,172,58.2,299.1,0,0,39.1-44.2,24.7-143.6-10.7-73.9-44.5-122.7-61.1-143-5.5-6.7-18.5-16.8-30-18.4l8.2,5.8Z"/>
        <g>
          <path class="st0" d="M296.1,590.1c6.7,8.7,10.1,19.3,10.1,31.6,0,18.3-7.5,32.4-22.6,42.4-15.1,10-36.9,15-65.5,15h-117.3v-208.4h111.3c27.8,0,48.8,5,63,14.9,14.2,9.9,21.3,23.1,21.3,39.6s-2.4,18.5-7.3,26.2c-4.9,7.7-12.1,14-21.6,18.8,12.3,4.6,21.8,11.2,28.6,19.9ZM169.8,519.8v31h32.7c15.3,0,22.9-5.2,22.9-15.5s-7.6-15.5-22.9-15.5h-32.7ZM235.3,613.6c0-10.9-7.7-16.4-23.2-16.4h-42.3v32.8h42.3c15.5,0,23.2-5.5,23.2-16.4Z"/>
          <path class="st0" d="M504.2,626.1v53h-173.3v-208.4h169.4v53h-100.3v24.4h88.1v50.6h-88.1v27.4h104.2Z"/>
          <path class="st0" d="M576.5,525.2h-61v-54.5h192.3v54.5h-61v153.9h-70.3v-153.9Z"/>
          <path class="st0" d="M1064.8,626.7h-19.1v52.4h-70.3v-208.4h100.3c19.2,0,36,3.2,50.3,9.5,14.3,6.4,25.3,15.5,33,27.4,7.7,11.9,11.6,25.8,11.6,41.7s-3.4,27.9-10.1,39c-6.7,11.1-16.5,19.9-29.2,26.5l43.8,64.3h-75l-35.4-52.4ZM1092.8,531.3c-4.8-4.3-11.9-6.4-21.4-6.4h-25.6v48.8h25.6c9.5,0,16.7-2.1,21.4-6.4,4.8-4.3,7.1-10.3,7.1-18s-2.4-13.7-7.1-18Z"/>
          <path class="st0" d="M1197.3,470.7h70.3v208.4h-70.3v-208.4Z"/>
          <path class="st0" d="M1371.7,523.7v35.7h86.9v53h-86.9v66.7h-70.3v-208.4h169.4v53h-99.1Z"/>
          <path class="st2" d="M1428.3,231.1c-31.5,62.8-142.9,350.7-640,332.3,0,0,130.6,63.6,387.5-25.5,257.7-89.5,252.6-306.8,252.6-306.8Z"/>
          <path class="st3" d="M1428.3,231.1c-29.5,63.7-142.5,335.1-640,332.3,0,0,131.6,56.9,386.5-37.7,254.9-94.6,253.5-294.7,253.5-294.7Z"/>
        </g>
        <path class="st0" d="M771.8,669.9c-17.9-9.3-31.9-22.3-42-38.9-10.1-16.6-15.2-35.3-15.2-56.1s5.1-39.5,15.2-56.1c10.1-16.6,24.1-29.5,42-38.9,17.9-9.3,38-14,60.4-14s42.6,4.7,60.4,14c17.9,9.3,31.9,22.3,42,38.9,10.1,16.6,15.2,35.3,15.2,56.1s-5.1,39.5-15.2,56.1c-10.1,16.6-24.1,29.5-42,38.9-17.9,9.3-38,14-60.4,14s-42.6-4.7-60.4-14ZM855.9,620.6c7-4.3,12.7-10.3,16.8-18.2,4.2-7.8,6.3-17,6.3-27.5s-2.1-19.7-6.3-27.5c-4.2-7.8-9.8-13.9-16.8-18.2-7-4.3-14.9-6.4-23.7-6.4s-16.6,2.1-23.7,6.4c-7,4.3-12.7,10.3-16.8,18.2-4.2,7.8-6.3,17-6.3,27.5s2.1,19.7,6.3,27.5c4.2,7.8,9.8,13.9,16.8,18.2,7,4.3,14.9,6.4,23.7,6.4s16.6-2.1,23.7-6.4Z"/>
        <rect class="st0" x="975.6" y="527.1" width="70" height="104.4"/>
        <path class="st0" d="M447,441.4c30.8-90.5,116.5-274.1,364.6-349.5,253.5-77,455-46.6,455-46.6,0,0-215.9-44.5-407-6.9-159.9,31.5-307.7,126.8-381.8,274.6-16.7,33.3-28,69.1-29.7,106.3l-1,22Z"/>
        <path class="st0" d="M928.7,141.3c36.3,61.7,84.3,177.9,66.5,304.9,0,0,30.8-50,16.4-149.4-10.7-73.9-44.5-122.7-61.1-143-5.5-6.7-13.2-11.2-21.8-12.6h0Z"/>
        <path class="st0" d="M35.1,661.4s15.1-176.8,13-261.1c0,0,41.5-69.6,57.2-104.5,15.8-34.9,26-63,27.1-71.3,0,0,39.1-29.8,179.2-36.3,0,0-66.1-11.9-186.4-.3,0,0-16.4,3.4-21.6,25.3-5.1,21.9-40.4,90.1-86,175.1l17.5,273.1Z"/>
        <g>
          <path class="st4" d="M235.1,731.2v32.9h-3.9l-19.8-24.6v24.6h-4.7v-32.9h3.9l19.8,24.6v-24.6h4.7Z"/>
          <path class="st4" d="M255.5,762.4c-2.7-1.5-4.8-3.5-6.3-6.1-1.5-2.6-2.3-5.4-2.3-8.6s.8-6,2.3-8.6c1.5-2.6,3.6-4.6,6.3-6,2.7-1.5,5.7-2.2,9-2.2s6.3.7,8.9,2.2c2.7,1.5,4.8,3.5,6.3,6,1.5,2.6,2.3,5.4,2.3,8.6s-.7,6.1-2.3,8.6c-1.5,2.6-3.6,4.6-6.3,6-2.7,1.5-5.6,2.2-8.9,2.2s-6.3-.7-9-2.2ZM271,758.7c1.9-1.1,3.5-2.6,4.6-4.5,1.1-1.9,1.7-4.1,1.7-6.5s-.6-4.5-1.7-6.5c-1.1-1.9-2.6-3.4-4.6-4.5-1.9-1.1-4.1-1.6-6.5-1.6s-4.6.6-6.6,1.6c-2,1.1-3.5,2.6-4.6,4.5-1.1,1.9-1.7,4.1-1.7,6.5s.6,4.5,1.7,6.5c1.1,1.9,2.7,3.4,4.6,4.5,2,1.1,4.1,1.6,6.6,1.6s4.6-.5,6.5-1.6Z"/>
          <path class="st4" d="M300,735.3h-11.3v-4.1h27.3v4.1h-11.3v28.8h-4.7v-28.8Z"/>
          <path class="st4" d="M347.8,764.2l-7.1-10.1c-.9,0-1.6,0-2.1,0h-8.1v10h-4.7v-32.9h12.8c4.3,0,7.6,1,10.1,3.1,2.4,2,3.7,4.8,3.7,8.4s-.6,4.7-1.9,6.5c-1.3,1.8-3,3.1-5.4,3.9l7.8,11.1h-5.1ZM345.3,748.2c1.6-1.3,2.4-3.1,2.4-5.5s-.8-4.2-2.4-5.5c-1.6-1.3-3.8-1.9-6.8-1.9h-8v14.8h8c3,0,5.3-.6,6.8-1.9Z"/>
          <path class="st4" d="M388.6,760.1v4.1h-23.9v-32.9h23.2v4.1h-18.5v10.1h16.5v4h-16.5v10.6h19.2Z"/>
          <path class="st4" d="M424.2,762.4c-2.7-1.5-4.8-3.5-6.3-6.1-1.5-2.6-2.3-5.4-2.3-8.6s.8-6,2.3-8.6c1.5-2.6,3.6-4.6,6.3-6,2.7-1.5,5.7-2.2,9-2.2s6.3.7,8.9,2.2c2.7,1.5,4.8,3.5,6.3,6,1.5,2.6,2.3,5.4,2.3,8.6s-.7,6.1-2.3,8.6c-1.5,2.6-3.6,4.6-6.3,6-2.7,1.5-5.6,2.2-8.9,2.2s-6.3-.7-9-2.2ZM439.7,758.7c1.9-1.1,3.5-2.6,4.6-4.5,1.1-1.9,1.7-4.1,1.7-6.5s-.6-4.5-1.7-6.5c-1.1-1.9-2.6-3.4-4.6-4.5-1.9-1.1-4.1-1.6-6.5-1.6s-4.6.6-6.6,1.6c-2,1.1-3.5,2.6-4.6,4.5-1.1,1.9-1.7,4.1-1.7,6.5s.6,4.5,1.7,6.5c1.1,1.9,2.7,3.4,4.6,4.5,2,1.1,4.1,1.6,6.6,1.6s4.6-.5,6.5-1.6Z"/>
          <path class="st4" d="M489.2,750c1.1,1.4,1.6,3.2,1.6,5.3s-1.1,5.1-3.2,6.6c-2.1,1.5-5.3,2.3-9.4,2.3h-15.7v-32.9h14.8c3.8,0,6.7.8,8.7,2.3,2.1,1.5,3.1,3.6,3.1,6.3s-.4,3.2-1.2,4.5c-.8,1.3-1.9,2.2-3.2,2.9,1.9.5,3.4,1.5,4.5,2.9ZM467.2,735v10.5h9.6c2.4,0,4.3-.4,5.6-1.3,1.3-.9,2-2.2,2-3.9s-.7-3-2-3.9c-1.3-.9-3.2-1.3-5.6-1.3h-9.6ZM484.1,759c1.4-.9,2-2.3,2-4.1,0-3.7-2.7-5.5-8-5.5h-10.8v11h10.8c2.7,0,4.7-.4,6-1.3Z"/>
          <path class="st4" d="M501.6,763.3c-1.7-.8-3.1-2-4.1-3.5l2.7-3.2c1.8,2.6,4.1,3.9,6.9,3.9s3.3-.6,4.2-1.7,1.4-2.8,1.4-5v-18.5h-11.9v-4.1h16.6v22.4c0,3.6-.9,6.4-2.6,8.2-1.7,1.8-4.3,2.8-7.7,2.8s-3.8-.4-5.5-1.2Z"/>
          <path class="st4" d="M555.6,760.1v4.1h-23.9v-32.9h23.2v4.1h-18.5v10.1h16.5v4h-16.5v10.6h19.2Z"/>
          <path class="st4" d="M573.6,762.4c-2.7-1.5-4.7-3.5-6.2-6-1.5-2.6-2.3-5.4-2.3-8.6s.8-6.1,2.3-8.6c1.5-2.6,3.6-4.6,6.3-6,2.7-1.5,5.6-2.2,8.9-2.2s4.9.4,7.1,1.3c2.1.9,4,2.1,5.5,3.8l-3.1,3c-2.5-2.6-5.6-3.9-9.3-3.9s-4.7.6-6.6,1.6c-2,1.1-3.5,2.6-4.6,4.5-1.1,1.9-1.7,4.1-1.7,6.5s.6,4.5,1.7,6.5c1.1,1.9,2.7,3.4,4.6,4.5,2,1.1,4.2,1.6,6.6,1.6,3.7,0,6.8-1.3,9.3-4l3.1,3c-1.5,1.7-3.3,3-5.5,3.9-2.1.9-4.5,1.3-7.1,1.3s-6.3-.7-8.9-2.2Z"/>
          <path class="st4" d="M612.7,735.3h-11.3v-4.1h27.3v4.1h-11.3v28.8h-4.7v-28.8Z"/>
          <path class="st4" d="M638.5,731.2h4.7v32.9h-4.7v-32.9Z"/>
          <path class="st4" d="M662.5,735.3v11.5h16.5v4h-16.5v13.3h-4.7v-32.9h23.2v4.1h-18.5Z"/>
          <path class="st4" d="M738.4,731.2l-14.4,32.9h-4.7l-14.5-32.9h5.1l11.9,27.1,12-27.1h4.7Z"/>
          <path class="st4" d="M752.8,762.4c-2.7-1.5-4.8-3.5-6.3-6.1-1.5-2.6-2.3-5.4-2.3-8.6s.8-6,2.3-8.6c1.5-2.6,3.6-4.6,6.3-6,2.7-1.5,5.7-2.2,9-2.2s6.3.7,8.9,2.2c2.7,1.5,4.8,3.5,6.3,6,1.5,2.6,2.3,5.4,2.3,8.6s-.7,6.1-2.3,8.6c-1.5,2.6-3.6,4.6-6.3,6-2.7,1.5-5.6,2.2-8.9,2.2s-6.3-.7-9-2.2ZM768.3,758.7c1.9-1.1,3.5-2.6,4.6-4.5,1.1-1.9,1.7-4.1,1.7-6.5s-.6-4.5-1.7-6.5c-1.1-1.9-2.6-3.4-4.6-4.5-1.9-1.1-4.1-1.6-6.5-1.6s-4.6.6-6.6,1.6c-2,1.1-3.5,2.6-4.6,4.5-1.1,1.9-1.7,4.1-1.7,6.5s.6,4.5,1.7,6.5c1.1,1.9,2.7,3.4,4.6,4.5,2,1.1,4.1,1.6,6.6,1.6s4.6-.5,6.5-1.6Z"/>
          <path class="st4" d="M797.2,735.3h-11.3v-4.1h27.3v4.1h-11.3v28.8h-4.7v-28.8Z"/>
          <path class="st4" d="M845,764.2l-7.1-10.1c-.9,0-1.6,0-2.1,0h-8.1v10h-4.7v-32.9h12.8c4.3,0,7.6,1,10.1,3.1,2.4,2,3.7,4.8,3.7,8.4s-.6,4.7-1.9,6.5c-1.3,1.8-3,3.1-5.4,3.9l7.8,11.1h-5.1ZM842.5,748.2c1.6-1.3,2.4-3.1,2.4-5.5s-.8-4.2-2.4-5.5c-1.6-1.3-3.8-1.9-6.8-1.9h-8v14.8h8c3,0,5.3-.6,6.8-1.9Z"/>
          <path class="st4" d="M885.8,760.1v4.1h-23.9v-32.9h23.2v4.1h-18.5v10.1h16.5v4h-16.5v10.6h19.2Z"/>
          <path class="st4" d="M918,763.4c-2.3-.8-4.1-1.8-5.4-3l1.7-3.7c1.3,1.1,2.9,2,4.8,2.8,2,.7,4,1.1,6.1,1.1s4.8-.5,6.1-1.4c1.4-.9,2-2.2,2-3.7s-.4-2-1.1-2.8c-.7-.7-1.6-1.2-2.7-1.6-1.1-.4-2.6-.8-4.6-1.3-2.5-.6-4.5-1.2-6-1.8-1.5-.6-2.8-1.5-3.9-2.8-1.1-1.2-1.6-2.9-1.6-5s.5-3.3,1.4-4.8c.9-1.4,2.3-2.5,4.2-3.4,1.9-.8,4.2-1.3,7-1.3s3.9.2,5.7.8c1.9.5,3.5,1.2,4.9,2.2l-1.6,3.8c-1.4-.9-2.9-1.5-4.4-2-1.6-.5-3.1-.7-4.6-.7-2.7,0-4.7.5-6,1.5-1.3,1-2,2.2-2,3.8s.4,2,1.1,2.8c.8.7,1.7,1.3,2.8,1.6,1.1.4,2.6.8,4.5,1.2,2.5.6,4.5,1.2,6,1.8,1.5.6,2.8,1.5,3.9,2.7,1.1,1.2,1.6,2.9,1.6,4.9s-.5,3.3-1.4,4.7c-.9,1.4-2.4,2.6-4.3,3.4-1.9.8-4.3,1.2-7.1,1.2s-4.9-.4-7.2-1.2Z"/>
          <path class="st4" d="M970.5,755.9h-17.5l-3.6,8.2h-4.8l14.9-32.9h4.7l15,32.9h-4.9l-3.6-8.2ZM968.8,752.2l-7.1-16.1-7.1,16.1h14.2Z"/>
          <path class="st4" d="M993.5,735.3h-11.3v-4.1h27.3v4.1h-11.3v28.8h-4.7v-28.8Z"/>
          <path class="st4" d="M1019.3,731.2h4.7v32.9h-4.7v-32.9Z"/>
          <path class="st4" d="M1041,763.4c-2.3-.8-4.1-1.8-5.4-3l1.7-3.7c1.3,1.1,2.9,2,4.8,2.8,2,.7,4,1.1,6.1,1.1s4.8-.5,6.1-1.4c1.4-.9,2-2.2,2-3.7s-.4-2-1.1-2.8c-.7-.7-1.6-1.2-2.7-1.6-1.1-.4-2.6-.8-4.6-1.3-2.5-.6-4.5-1.2-6-1.8-1.5-.6-2.8-1.5-3.9-2.8-1.1-1.2-1.6-2.9-1.6-5s.5-3.3,1.4-4.8c.9-1.4,2.3-2.5,4.2-3.4,1.9-.8,4.2-1.3,7-1.3s3.9.2,5.7.8c1.9.5,3.5,1.2,4.9,2.2l-1.6,3.8c-1.4-.9-2.9-1.5-4.4-2-1.6-.5-3.1-.7-4.6-.7-2.7,0-4.7.5-6,1.5-1.3,1-2,2.2-2,3.8s.4,2,1.1,2.8c.8.7,1.7,1.3,2.8,1.6,1.1.4,2.6.8,4.5,1.2,2.5.6,4.5,1.2,6,1.8,1.5.6,2.8,1.5,3.9,2.7,1.1,1.2,1.6,2.9,1.6,4.9s-.5,3.3-1.4,4.7c-.9,1.4-2.4,2.6-4.3,3.4-1.9.8-4.3,1.2-7.1,1.2s-4.9-.4-7.2-1.2Z"/>
          <path class="st4" d="M1077.2,735.3v11.5h16.5v4h-16.5v13.3h-4.7v-32.9h23.2v4.1h-18.5Z"/>
          <path class="st4" d="M1126.6,755.9h-17.5l-3.6,8.2h-4.8l14.9-32.9h4.7l15,32.9h-4.9l-3.6-8.2ZM1125,752.2l-7.1-16.1-7.1,16.1h14.2Z"/>
          <path class="st4" d="M1150.1,762.4c-2.7-1.5-4.7-3.5-6.2-6-1.5-2.6-2.3-5.4-2.3-8.6s.8-6.1,2.3-8.6c1.5-2.6,3.6-4.6,6.3-6,2.7-1.5,5.6-2.2,8.9-2.2s4.9.4,7.1,1.3c2.1.9,4,2.1,5.5,3.8l-3.1,3c-2.5-2.6-5.6-3.9-9.3-3.9s-4.7.6-6.6,1.6c-2,1.1-3.5,2.6-4.6,4.5-1.1,1.9-1.7,4.1-1.7,6.5s.6,4.5,1.7,6.5c1.1,1.9,2.7,3.4,4.6,4.5,2,1.1,4.2,1.6,6.6,1.6,3.7,0,6.8-1.3,9.3-4l3.1,3c-1.5,1.7-3.3,3-5.5,3.9-2.1.9-4.5,1.3-7.1,1.3s-6.3-.7-8.9-2.2Z"/>
          <path class="st4" d="M1189.2,735.3h-11.3v-4.1h27.3v4.1h-11.3v28.8h-4.7v-28.8Z"/>
          <path class="st4" d="M1215,731.2h4.7v32.9h-4.7v-32.9Z"/>
          <path class="st4" d="M1240.2,762.4c-2.7-1.5-4.8-3.5-6.3-6.1-1.5-2.6-2.3-5.4-2.3-8.6s.8-6,2.3-8.6c1.5-2.6,3.6-4.6,6.3-6,2.7-1.5,5.7-2.2,9-2.2s6.3.7,8.9,2.2c2.7,1.5,4.8,3.5,6.3,6,1.5,2.6,2.3,5.4,2.3,8.6s-.7,6.1-2.3,8.6c-1.5,2.6-3.6,4.6-6.3,6-2.7,1.5-5.6,2.2-8.9,2.2s-6.3-.7-9-2.2ZM1255.7,758.7c1.9-1.1,3.5-2.6,4.6-4.5s1.7-4.1,1.7-6.5-.6-4.5-1.7-6.5c-1.1-1.9-2.6-3.4-4.6-4.5-1.9-1.1-4.1-1.6-6.5-1.6s-4.6.6-6.6,1.6c-2,1.1-3.5,2.6-4.6,4.5-1.1,1.9-1.7,4.1-1.7,6.5s.6,4.5,1.7,6.5,2.7,3.4,4.6,4.5c2,1.1,4.1,1.6,6.6,1.6s4.6-.5,6.5-1.6Z"/>
          <path class="st4" d="M1306.9,731.2v32.9h-3.9l-19.8-24.6v24.6h-4.7v-32.9h3.9l19.8,24.6v-24.6h4.7Z"/>
        </g>
        <rect class="st1" x="33.1" y="745.7" width="107.4" height="9.6"/>
        <rect class="st1" x="1358.4" y="745.7" width="107.4" height="9.6"/>
      </g>
    </g>
  </g>
</svg>